<svg xmlns="http://www.w3.org/2000/svg" width="40" height="40" viewBox="0 0 40 40">
  <metadata><?xpacket begin="﻿" id="W5M0MpCehiHzreSzNTczkc9d"?>
<x:xmpmeta xmlns:x="adobe:ns:meta/" x:xmptk="Adobe XMP Core 5.6-c142 79.160924, 2017/07/13-01:06:39        ">
   <rdf:RDF xmlns:rdf="http://www.w3.org/1999/02/22-rdf-syntax-ns#">
      <rdf:Description rdf:about=""/>
   </rdf:RDF>
</x:xmpmeta>
                                                                                                    
                                                                                                    
                                                                                                    
                                                                                                    
                                                                                                    
                                                                                                    
                                                                                                    
                                                                                                    
                                                                                                    
                                                                                                    
                                                                                                    
                                                                                                    
                                                                                                    
                                                                                                    
                                                                                                    
                                                                                                    
                                                                                                    
                                                                                                    
                                                                                                    
                                                                                                    
                           
<?xpacket end="w"?></metadata>
<defs>
    <style>
      .cls-1 {
        fill: #f5c543;
        fill-rule: evenodd;
      }
    </style>
  </defs>
  <path id="amusement" class="cls-1" d="M67.459,333.663a3.277,3.277,0,0,1-1.428.323,5.93,5.93,0,0,1-4.048-2.1c-2.508-2.571-8.221-4.109-12.3-4.109a18.548,18.548,0,0,0-11.766,4.211c-2.7,2.272-4.567,2.044-5.652,1.454-2.006-1.089-2.673-4.062-2.042-9.087,0.917-7.308,2.279-14.58,6-18.288,2.136-2.132,6.009-2.947,9.459.3a6.145,6.145,0,0,0,3.734,1.668c0.01,0,.24.016,0.607,0.021a3.977,3.977,0,0,0,.457-0.032,8.862,8.862,0,0,0,3.846-1.657c2.767-2.6,5.687-2.884,8.682-.829,2.888,1.983,5.834,11.332,6.774,18.82C70.43,329.48,69.647,332.611,67.459,333.663Zm-0.648-8.932c-1.1-8.79-4.187-15.824-5.5-16.723-1.51-1.038-2.926-1.343-4.93.542a11.752,11.752,0,0,1-5.414,2.43,6.533,6.533,0,0,1-.944.072c-0.54-.007-0.845-0.03-0.845-0.03a9.127,9.127,0,0,1-5.55-2.472c-2.146-2.019-4.19-1.452-5.287-.359-3.087,3.078-4.331,10.089-5.141,16.54-0.561,4.464.171,5.906,0.5,6.085,0.148,0.08.894,0.055,2.29-1.117a21.591,21.591,0,0,1,13.695-4.913c4.747,0,11.233,1.723,14.442,5.014,1.034,1.06,1.8,1.274,2.029,1.164C66.536,330.783,67.387,329.311,66.811,324.731Zm-6.64-27.74H54.4c-3.011,0-3.2,2.06-3.214,2.3l0,5.3a1.5,1.5,0,0,1-3,0v-5.377c0.092-1.853,1.5-5.215,6.21-5.215h5.772A1.5,1.5,0,1,1,60.171,296.991Z" transform="translate(-30 -294)"/>
</svg>
