<svg xmlns="http://www.w3.org/2000/svg" width="39.938" height="44" viewBox="0 0 39.938 44">
  <metadata><?xpacket begin="﻿" id="W5M0MpCehiHzreSzNTczkc9d"?>
<x:xmpmeta xmlns:x="adobe:ns:meta/" x:xmptk="Adobe XMP Core 5.6-c142 79.160924, 2017/07/13-01:06:39        ">
   <rdf:RDF xmlns:rdf="http://www.w3.org/1999/02/22-rdf-syntax-ns#">
      <rdf:Description rdf:about=""/>
   </rdf:RDF>
</x:xmpmeta>
                                                                                                    
                                                                                                    
                                                                                                    
                                                                                                    
                                                                                                    
                                                                                                    
                                                                                                    
                                                                                                    
                                                                                                    
                                                                                                    
                                                                                                    
                                                                                                    
                                                                                                    
                                                                                                    
                                                                                                    
                                                                                                    
                                                                                                    
                                                                                                    
                                                                                                    
                                                                                                    
                           
<?xpacket end="w"?></metadata>
<defs>
    <style>
      .cls-1 {
        fill: #3a3a3a;
        fill-rule: evenodd;
      }
    </style>
  </defs>
  <path id="bill_icon" class="cls-1" d="M307.828,1035.81A3.634,3.634,0,0,1,305,1037H276c-2.451,0-5-1.56-5-4v-4c-1.282-.52-1.929-2.22-2-3.6a3.8,3.8,0,0,1,2-3.4v-5a2.754,2.754,0,0,1-2-2.64,3.724,3.724,0,0,1,2-3.36v-5a2.814,2.814,0,0,1-2-2.69,3.647,3.647,0,0,1,2-3.31v-2a5.481,5.481,0,0,1,5-5h29c2.451,0,3.923,2.349,3.923,4.788V1032.9A3.715,3.715,0,0,1,307.828,1035.81ZM298.5,1014h-15a1.5,1.5,0,0,0,0,3h15A1.5,1.5,0,0,0,298.5,1014Z" transform="translate(-269 -993)"/>
</svg>
