<svg xmlns="http://www.w3.org/2000/svg" width="40" height="36" viewBox="0 0 40 36">
  <metadata><?xpacket begin="﻿" id="W5M0MpCehiHzreSzNTczkc9d"?>
<x:xmpmeta xmlns:x="adobe:ns:meta/" x:xmptk="Adobe XMP Core 5.6-c142 79.160924, 2017/07/13-01:06:39        ">
   <rdf:RDF xmlns:rdf="http://www.w3.org/1999/02/22-rdf-syntax-ns#">
      <rdf:Description rdf:about=""/>
   </rdf:RDF>
</x:xmpmeta>
                                                                                                    
                                                                                                    
                                                                                                    
                                                                                                    
                                                                                                    
                                                                                                    
                                                                                                    
                                                                                                    
                                                                                                    
                                                                                                    
                                                                                                    
                                                                                                    
                                                                                                    
                                                                                                    
                                                                                                    
                                                                                                    
                                                                                                    
                                                                                                    
                                                                                                    
                                                                                                    
                           
<?xpacket end="w"?></metadata>
<defs>
    <style>
      .cls-1 {
        fill: #f5c543;
        fill-rule: evenodd;
      }
    </style>
  </defs>
  <path id="chat_icon" class="cls-1" d="M90.5,708a1.5,1.5,0,0,1-1.5-1.5,13.205,13.205,0,0,0-4.42-9.85,1.5,1.5,0,1,1,2-2.235A16.2,16.2,0,0,1,92,706.5,1.5,1.5,0,0,1,90.5,708ZM75.787,693.359c-0.172,0-.34-0.018-0.51-0.026a13.207,13.207,0,0,0-12.7,13.169,1.5,1.5,0,0,1-3,0,16.208,16.208,0,0,1,10.176-15.015,10.774,10.774,0,0,1-1.922-1.686,1.41,1.41,0,0,1,.045.223,1.5,1.5,0,0,1-1.5,1.5A11.379,11.379,0,0,0,55,702.88a1.5,1.5,0,0,1-3,0,14.37,14.37,0,0,1,8.9-13.265,8.833,8.833,0,0,1,5.477-15.782,1.5,1.5,0,0,1,1.5,1.5,1.418,1.418,0,0,1-.048.24A10.682,10.682,0,1,1,75.787,693.359ZM66.915,676.72a1.476,1.476,0,0,1-.541.109,5.849,5.849,0,1,0,0,11.7,1.48,1.48,0,0,1,.558.113A10.613,10.613,0,0,1,66.915,676.72Zm8.872-1.727a7.68,7.68,0,0,0-.511,15.344c0.171-.006.338-0.026,0.511-0.026a1.409,1.409,0,0,1,.2.041A7.681,7.681,0,0,0,75.787,674.993Z" transform="translate(-52 -672)"/>
</svg>
