<svg xmlns="http://www.w3.org/2000/svg" width="39.875" height="40" viewBox="0 0 39.875 40">
  <metadata><?xpacket begin="﻿" id="W5M0MpCehiHzreSzNTczkc9d"?>
<x:xmpmeta xmlns:x="adobe:ns:meta/" x:xmptk="Adobe XMP Core 5.6-c142 79.160924, 2017/07/13-01:06:39        ">
   <rdf:RDF xmlns:rdf="http://www.w3.org/1999/02/22-rdf-syntax-ns#">
      <rdf:Description rdf:about=""/>
   </rdf:RDF>
</x:xmpmeta>
                                                                                                    
                                                                                                    
                                                                                                    
                                                                                                    
                                                                                                    
                                                                                                    
                                                                                                    
                                                                                                    
                                                                                                    
                                                                                                    
                                                                                                    
                                                                                                    
                                                                                                    
                                                                                                    
                                                                                                    
                                                                                                    
                                                                                                    
                                                                                                    
                                                                                                    
                                                                                                    
                           
<?xpacket end="w"?></metadata>
<defs>
    <style>
      .cls-1 {
        fill: #36c86c;
        fill-rule: evenodd;
      }
    </style>
  </defs>
  <path id="complaint" class="cls-1" d="M69.815,811.8l-16.278,6.1a1.5,1.5,0,0,1-.524.1,1.475,1.475,0,0,1-.473-0.077S35.429,812.21,34.233,811.8c-1.678-.55-2.24-2.443-2.206-3.895v-21.9a8.017,8.017,0,0,1,8-8.013H63.89a8.017,8.017,0,0,1,8,8.013v22.338A3.346,3.346,0,0,1,69.815,811.8Zm-0.906-3.247c0-.034-0.007-0.105-0.007-0.139v-22.41a5.021,5.021,0,0,0-5.013-5.018H40.029a5.021,5.021,0,0,0-5.012,5.018v21.935a2.108,2.108,0,0,0,.236,1.06c1.023,0.335,14.9,4.967,17.732,5.911L68.767,809A0.551,0.551,0,0,0,68.91,808.557ZM53.62,798.265c-0.006.907,0,2.432,0,2.432l-2.991.012s-0.006-1.545,0-2.464c0.008-1.357.956-2.985,3.383-5.8a3.485,3.485,0,0,0,.45-3.524,2.213,2.213,0,0,0-2.189-1.335,2.8,2.8,0,0,0-2.111.753,4.507,4.507,0,0,0-.991,2.887,1.5,1.5,0,0,1-1.456,1.532h-0.04a1.492,1.492,0,0,1-1.493-1.445A7.446,7.446,0,0,1,48,786.261a5.766,5.766,0,0,1,4.269-1.675,5.178,5.178,0,0,1,4.907,3.082,6.477,6.477,0,0,1-.9,6.727C53.784,797.292,53.626,798.128,53.62,798.265Zm-1.66,6.285a2.172,2.172,0,1,1-2.169,2.172A2.171,2.171,0,0,1,51.96,804.55Z" transform="translate(-32.031 -778)"/>
</svg>
