<svg xmlns="http://www.w3.org/2000/svg" width="40.031" height="40" viewBox="0 0 40.031 40">
  <metadata><?xpacket begin="﻿" id="W5M0MpCehiHzreSzNTczkc9d"?>
<x:xmpmeta xmlns:x="adobe:ns:meta/" x:xmptk="Adobe XMP Core 5.6-c142 79.160924, 2017/07/13-01:06:39        ">
   <rdf:RDF xmlns:rdf="http://www.w3.org/1999/02/22-rdf-syntax-ns#">
      <rdf:Description rdf:about=""/>
   </rdf:RDF>
</x:xmpmeta>
                                                                                                    
                                                                                                    
                                                                                                    
                                                                                                    
                                                                                                    
                                                                                                    
                                                                                                    
                                                                                                    
                                                                                                    
                                                                                                    
                                                                                                    
                                                                                                    
                                                                                                    
                                                                                                    
                                                                                                    
                                                                                                    
                                                                                                    
                                                                                                    
                                                                                                    
                                                                                                    
                           
<?xpacket end="w"?></metadata>
<defs>
    <style>
      .cls-1 {
        fill: #36c86c;
        fill-rule: evenodd;
      }
    </style>
  </defs>
  <path id="framework" class="cls-1" d="M67.514,446.962H58.566a3.508,3.508,0,0,1-3.48-3.527V436.38a3.508,3.508,0,0,1,3.48-3.528h2.983v-4.565a0.535,0.535,0,0,0-.543-0.282H41.3a0.537,0.537,0,0,0-.544.282v4.565h2.654a3.508,3.508,0,0,1,3.48,3.528v7.055a3.508,3.508,0,0,1-3.48,3.527H34.461a3.508,3.508,0,0,1-3.48-3.527V436.38a3.508,3.508,0,0,1,3.48-3.528h3.311v-4.565a3.424,3.424,0,0,1,3.526-3.3H49.66v-3.9H46.678a3.507,3.507,0,0,1-3.48-3.527v-7.055a3.507,3.507,0,0,1,3.48-3.527h8.948a3.508,3.508,0,0,1,3.48,3.527v7.055a3.508,3.508,0,0,1-3.48,3.527H52.643v3.9h8.363a3.424,3.424,0,0,1,3.525,3.3v4.565h2.982a3.508,3.508,0,0,1,3.48,3.528v7.055A3.508,3.508,0,0,1,67.514,446.962ZM34.461,435.876a0.506,0.506,0,0,0-.5.5v7.055a0.507,0.507,0,0,0,.5.5h8.948a0.507,0.507,0,0,0,.5-0.5V436.38a0.506,0.506,0,0,0-.5-0.5H34.461ZM56.122,417.56v-7.055a0.506,0.506,0,0,0-.5-0.5H46.678a0.506,0.506,0,0,0-.5.5v7.055a0.506,0.506,0,0,0,.5.5h8.948A0.506,0.506,0,0,0,56.122,417.56Zm11.888,18.82a0.506,0.506,0,0,0-.5-0.5H58.566a0.506,0.506,0,0,0-.5.5v7.055a0.507,0.507,0,0,0,.5.5h8.948a0.507,0.507,0,0,0,.5-0.5V436.38Z" transform="translate(-30.969 -406.969)"/>
</svg>
