<?xml version="1.0" standalone="no"?><!DOCTYPE svg PUBLIC "-//W3C//DTD SVG 1.1//EN" "http://www.w3.org/Graphics/SVG/1.1/DTD/svg11.dtd"><svg t="1596016461956" class="icon" viewBox="0 0 1024 1024" version="1.1" xmlns="http://www.w3.org/2000/svg" p-id="561" width="16" height="16" xmlns:xlink="http://www.w3.org/1999/xlink"><defs><style type="text/css"></style></defs><path d="M297.386667 300.8h-85.333334a32 32 0 0 1 0-64h85.333334a32 32 0 0 1 0 64zM425.386667 400.64h-213.333334a32 32 0 1 1 0-64h213.333334a32 32 0 1 1 0 64zM425.386667 503.466667h-256a32 32 0 1 1 0-64h256a32 32 0 0 1 0 64z" fill="#FC455D" p-id="562"></path><path d="M245.12 619.733333h176.426667v64h-176.426667zM232.106667 707.626667h159.573333v64h-159.573333z" fill="#FD8F9E" p-id="563"></path><path d="M402.773333 881.28a32 32 0 0 1-32-32v-256h-104.746666v231.893333a32 32 0 0 1-64 0V560.426667a32 32 0 0 1 32-32h168.96a32 32 0 0 1 32 32v288.853333a32 32 0 0 1-32.213334 32z" fill="#FC455D" p-id="564"></path><path d="M425.386667 268.8m-30.16989 30.169889a42.666667 42.666667 0 1 0 60.339779-60.339778 42.666667 42.666667 0 1 0-60.339779 60.339778Z" fill="#FF9B57" p-id="565"></path><path d="M318.506667 483.626667a32 32 0 0 1-32-32V203.093333a32 32 0 0 1 64 0v248.533334a32 32 0 0 1-32 32zM734.506667 607.36a32 32 0 0 1-32-31.36l-1.706667-272.853333h-149.333333v228.266666a32 32 0 0 1-64 0V270.506667a32 32 0 0 1 32-32h213.333333a32 32 0 0 1 32 31.786666L766.506667 576a32 32 0 0 1-31.786667 32.213333z" fill="#FC455D" p-id="566"></path><path d="M611.2 731.733333a32 32 0 0 1-32-32V404.266667a32 32 0 0 1 64 0V699.733333a32 32 0 0 1-32 32zM611.2 702.506667a112.426667 112.426667 0 0 1-112.426667 112.426666" fill="#FD8F9E" p-id="567"></path><path d="M498.773333 846.933333a32 32 0 1 1 0-64 80.426667 80.426667 0 0 0 80.426667-80.426666 32 32 0 0 1 64 0 144.426667 144.426667 0 0 1-144.426667 144.426666z" fill="#FD8F9E" p-id="568"></path><path d="M882.773333 690.986667a135.68 135.68 0 0 1-271.573333 0" fill="#FFFFFF" p-id="569"></path><path d="M746.666667 858.666667a167.893333 167.893333 0 0 1-167.68-167.68 32 32 0 0 1 64 0 103.68 103.68 0 0 0 207.573333 0 32 32 0 0 1 64 0A167.893333 167.893333 0 0 1 746.666667 858.666667z" fill="#FC455D" p-id="570"></path></svg>