<svg xmlns="http://www.w3.org/2000/svg" width="67" height="68" viewBox="0 0 67 68">
  <metadata><?xpacket begin="﻿" id="W5M0MpCehiHzreSzNTczkc9d"?>
<x:xmpmeta xmlns:x="adobe:ns:meta/" x:xmptk="Adobe XMP Core 5.6-c142 79.160924, 2017/07/13-01:06:39        ">
   <rdf:RDF xmlns:rdf="http://www.w3.org/1999/02/22-rdf-syntax-ns#">
      <rdf:Description rdf:about=""/>
   </rdf:RDF>
</x:xmpmeta>
                                                                                                    
                                                                                                    
                                                                                                    
                                                                                                    
                                                                                                    
                                                                                                    
                                                                                                    
                                                                                                    
                                                                                                    
                                                                                                    
                                                                                                    
                                                                                                    
                                                                                                    
                                                                                                    
                                                                                                    
                                                                                                    
                                                                                                    
                                                                                                    
                                                                                                    
                                                                                                    
                           
<?xpacket end="w"?></metadata>
<defs>
    <style>
      .cls-1 {
        fill: #2dcb67;
        fill-rule: evenodd;
      }
    </style>
  </defs>
  <path id="group_" data-name="group " class="cls-1" d="M89,212H42a10,10,0,0,1-10-10V154a10,10,0,0,1,10-10H89a10,10,0,0,1,10,10v48A10,10,0,0,1,89,212ZM69.43,172.341c2.687-8.805-5.081-8.859-5.081-8.859a6.4,6.4,0,0,0-7.489-.516c-4.946,2.825-2.584,9.375-2.584,9.375a2.041,2.041,0,0,0-1.533,1.892,2.2,2.2,0,0,0,1.533,1.978s3.942,1.806,3.548,4.042S46.7,182.1,47.006,188.467c0.266,5.519,11.8,5.2,14.847,5.289,3.153-.064,14.582.23,14.847-5.289,0.307-6.365-10.424-5.978-10.818-8.214s3.547-4.042,3.547-4.042a2.2,2.2,0,0,0,1.533-1.978A2.041,2.041,0,0,0,69.43,172.341Zm13.314,9.89c-2.058-1.2-6.57-1.5-6.526-2.537s1.445-1.5,3.548-2.193,0.088-2.387.088-3.225c0.109-4.666-1.445-7.182-4.161-8.343a9.915,9.915,0,0,0-3.84-.591,0.5,0.5,0,0,0-.467.7,6.415,6.415,0,0,1,.174,4.668,0.487,0.487,0,0,0,.246.623c0.482,0.2,1.18.785,1.18,2.474,0,2.58-2.511,3.791-3.209,4.361s-1.176,1.674,1.229,2.232A11.759,11.759,0,0,1,78,185c0.97,1.413.761,3.421,0.178,5.092a0.528,0.528,0,0,0,.571.693c2.74-.358,5.11-1.175,5.7-2.275A4.8,4.8,0,0,0,82.745,182.231Z" transform="translate(-32 -144)"/>
</svg>
