<svg xmlns="http://www.w3.org/2000/svg" width="40" height="40" viewBox="0 0 40 40">
  <metadata><?xpacket begin="﻿" id="W5M0MpCehiHzreSzNTczkc9d"?>
<x:xmpmeta xmlns:x="adobe:ns:meta/" x:xmptk="Adobe XMP Core 5.6-c142 79.160924, 2017/07/13-01:06:39        ">
   <rdf:RDF xmlns:rdf="http://www.w3.org/1999/02/22-rdf-syntax-ns#">
      <rdf:Description rdf:about=""/>
   </rdf:RDF>
</x:xmpmeta>
                                                                                                    
                                                                                                    
                                                                                                    
                                                                                                    
                                                                                                    
                                                                                                    
                                                                                                    
                                                                                                    
                                                                                                    
                                                                                                    
                                                                                                    
                                                                                                    
                                                                                                    
                                                                                                    
                                                                                                    
                                                                                                    
                                                                                                    
                                                                                                    
                                                                                                    
                                                                                                    
                           
<?xpacket end="w"?></metadata>
<defs>
    <style>
      .cls-1 {
        fill: #f5c543;
        fill-rule: evenodd;
      }
    </style>
  </defs>
  <path id="id" class="cls-1" d="M64.157,572.7H58.41l-5.3,5.813A1.5,1.5,0,0,1,52,579H51.991a1.5,1.5,0,0,1-1.111-.5l-5.169-5.8H39.843A7.972,7.972,0,0,1,32,564.62V547.078A7.972,7.972,0,0,1,39.843,539H64.157A7.972,7.972,0,0,1,72,547.078V564.62A7.972,7.972,0,0,1,64.157,572.7ZM69,547.078A4.97,4.97,0,0,0,64.157,542H39.843A4.97,4.97,0,0,0,35,547.078V564.62a4.97,4.97,0,0,0,4.843,5.078h6.541a1.5,1.5,0,0,1,1.12.5l4.509,5.06,4.627-5.073a1.5,1.5,0,0,1,1.108-.489h6.409A4.97,4.97,0,0,0,69,564.62V547.078ZM61.25,556.5H42.75a1.5,1.5,0,0,1,0-3h18.5A1.5,1.5,0,0,1,61.25,556.5Z" transform="translate(-32 -539)"/>
</svg>
