<svg xmlns="http://www.w3.org/2000/svg" width="40" height="46" viewBox="0 0 40 46">
  <metadata><?xpacket begin="﻿" id="W5M0MpCehiHzreSzNTczkc9d"?>
<x:xmpmeta xmlns:x="adobe:ns:meta/" x:xmptk="Adobe XMP Core 5.6-c142 79.160924, 2017/07/13-01:06:39        ">
   <rdf:RDF xmlns:rdf="http://www.w3.org/1999/02/22-rdf-syntax-ns#">
      <rdf:Description rdf:about=""/>
   </rdf:RDF>
</x:xmpmeta>
                                                                                                    
                                                                                                    
                                                                                                    
                                                                                                    
                                                                                                    
                                                                                                    
                                                                                                    
                                                                                                    
                                                                                                    
                                                                                                    
                                                                                                    
                                                                                                    
                                                                                                    
                                                                                                    
                                                                                                    
                                                                                                    
                                                                                                    
                                                                                                    
                                                                                                    
                                                                                                    
                           
<?xpacket end="w"?></metadata>
<defs>
    <style>
      .cls-1 {
        fill: #3a3a3a;
        fill-rule: evenodd;
      }
    </style>
  </defs>
  <path id="locating" class="cls-1" d="M645.5,1203.43a8.5,8.5,0,1,0-8.5,8.5A8.508,8.508,0,0,0,645.5,1203.43Zm5.184-21.43H623.316a6.334,6.334,0,0,0-6.316,6.32v33.36a6.334,6.334,0,0,0,6.316,6.32h27.368a6.334,6.334,0,0,0,6.316-6.32v-33.36A6.334,6.334,0,0,0,650.684,1182Zm-4.034,33.75a1.492,1.492,0,0,1-.435,2.07,1.463,1.463,0,0,1-.819.25,1.5,1.5,0,0,1-1.257-.68l-2.309-3.54a11.334,11.334,0,0,1-4.83,1.08,11.52,11.52,0,1,1,7.367-2.68Z" transform="translate(-617 -1182)"/>
</svg>
