<svg xmlns="http://www.w3.org/2000/svg" width="33" height="39" viewBox="0 0 33 39">
  <metadata><?xpacket begin="﻿" id="W5M0MpCehiHzreSzNTczkc9d"?>
<x:xmpmeta xmlns:x="adobe:ns:meta/" x:xmptk="Adobe XMP Core 5.6-c142 79.160924, 2017/07/13-01:06:39        ">
   <rdf:RDF xmlns:rdf="http://www.w3.org/1999/02/22-rdf-syntax-ns#">
      <rdf:Description rdf:about=""/>
   </rdf:RDF>
</x:xmpmeta>
                                                                                                    
                                                                                                    
                                                                                                    
                                                                                                    
                                                                                                    
                                                                                                    
                                                                                                    
                                                                                                    
                                                                                                    
                                                                                                    
                                                                                                    
                                                                                                    
                                                                                                    
                                                                                                    
                                                                                                    
                                                                                                    
                                                                                                    
                                                                                                    
                                                                                                    
                                                                                                    
                           
<?xpacket end="w"?></metadata>
<defs>
    <style>
      .cls-1 {
        fill: #333;
        fill-rule: evenodd;
      }
    </style>
  </defs>
  <path id="message_nor" class="cls-1" d="M283.875,1294H270.833a6.843,6.843,0,0,1-6.833-6.83v-25.34a6.843,6.843,0,0,1,6.833-6.83h19.334a6.843,6.843,0,0,1,6.833,6.83v19.04A13.142,13.142,0,0,1,283.875,1294ZM294,1261.83a3.837,3.837,0,0,0-3.833-3.83H286.9a1.461,1.461,0,0,1,.1.5v11a1.5,1.5,0,0,1-3,0v-11a1.461,1.461,0,0,1,.1-0.5H270.833a3.837,3.837,0,0,0-3.833,3.83v25.34a3.837,3.837,0,0,0,3.833,3.83h13.042A10.136,10.136,0,0,0,294,1280.87v-19.04Z" transform="translate(-264 -1255)"/>
</svg>
