<svg xmlns="http://www.w3.org/2000/svg" width="83" height="83" viewBox="0 0 83 83">
  <metadata><?xpacket begin="﻿" id="W5M0MpCehiHzreSzNTczkc9d"?>
<x:xmpmeta xmlns:x="adobe:ns:meta/" x:xmptk="Adobe XMP Core 5.6-c142 79.160924, 2017/07/13-01:06:39        ">
   <rdf:RDF xmlns:rdf="http://www.w3.org/1999/02/22-rdf-syntax-ns#">
      <rdf:Description rdf:about=""/>
   </rdf:RDF>
</x:xmpmeta>
                                                                                                    
                                                                                                    
                                                                                                    
                                                                                                    
                                                                                                    
                                                                                                    
                                                                                                    
                                                                                                    
                                                                                                    
                                                                                                    
                                                                                                    
                                                                                                    
                                                                                                    
                                                                                                    
                                                                                                    
                                                                                                    
                                                                                                    
                                                                                                    
                                                                                                    
                                                                                                    
                           
<?xpacket end="w"?></metadata>
<defs>
    <style>
      .cls-1 {
        fill: #e1ae60;
        fill-rule: evenodd;
      }
    </style>
  </defs>
  <path id="off" class="cls-1" d="M368.5,1194a41.5,41.5,0,1,1,41.5-41.5A41.549,41.549,0,0,1,368.5,1194Zm0-78a36.5,36.5,0,1,0,36.5,36.5A36.539,36.539,0,0,0,368.5,1116Zm15.7,52.2a2.5,2.5,0,0,1-3.535,0L368.5,1156.04l-12.167,12.16a2.5,2.5,0,0,1-3.535-3.53l12.167-12.17L352.8,1140.33a2.5,2.5,0,0,1,3.535-3.53l12.167,12.16,12.167-12.16a2.5,2.5,0,0,1,3.535,3.53l-12.167,12.17,12.167,12.17A2.492,2.492,0,0,1,384.2,1168.2Z" transform="translate(-327 -1111)"/>
</svg>
