<svg xmlns="http://www.w3.org/2000/svg" width="40" height="46.001" viewBox="0 0 40 46.001">
  <metadata><?xpacket begin="﻿" id="W5M0MpCehiHzreSzNTczkc9d"?>
<x:xmpmeta xmlns:x="adobe:ns:meta/" x:xmptk="Adobe XMP Core 5.6-c142 79.160924, 2017/07/13-01:06:39        ">
   <rdf:RDF xmlns:rdf="http://www.w3.org/1999/02/22-rdf-syntax-ns#">
      <rdf:Description rdf:about=""/>
   </rdf:RDF>
</x:xmpmeta>
                                                                                                    
                                                                                                    
                                                                                                    
                                                                                                    
                                                                                                    
                                                                                                    
                                                                                                    
                                                                                                    
                                                                                                    
                                                                                                    
                                                                                                    
                                                                                                    
                                                                                                    
                                                                                                    
                                                                                                    
                                                                                                    
                                                                                                    
                                                                                                    
                                                                                                    
                                                                                                    
                           
<?xpacket end="w"?></metadata>
<defs>
    <style>
      .cls-1 {
        fill: #3a3a3a;
        fill-rule: evenodd;
      }
    </style>
  </defs>
  <path id="packet_icon" class="cls-1" d="M135,1004.15v27.68a6.147,6.147,0,0,1-6.153,6.14H101.156A6.147,6.147,0,0,1,95,1031.83v-27.68a0.74,0.74,0,0,1,.954-0.7l14.119,4.32A4.9,4.9,0,0,1,110,1007a4.984,4.984,0,0,1,.518-2.18L95,1000c0.1-.1,0-2.162.033-2.506a6.146,6.146,0,0,1,6.123-5.537h27.687a6.147,6.147,0,0,1,6.124,5.538c0.033,0.344-.185,2.665-0.517,2.765l-14.948,4.6a4.588,4.588,0,0,1,.417,2.94l14.121-4.35A0.741,0.741,0,0,1,135,1004.15Zm-20-.15a3,3,0,1,0,3,3A3,3,0,0,0,115,1004Z" transform="translate(-95 -991.969)"/>
</svg>
