<svg xmlns="http://www.w3.org/2000/svg" width="40.969" height="45.63" viewBox="0 0 40.969 45.63">
  <metadata><?xpacket begin="﻿" id="W5M0MpCehiHzreSzNTczkc9d"?>
<x:xmpmeta xmlns:x="adobe:ns:meta/" x:xmptk="Adobe XMP Core 5.6-c142 79.160924, 2017/07/13-01:06:39        ">
   <rdf:RDF xmlns:rdf="http://www.w3.org/1999/02/22-rdf-syntax-ns#">
      <rdf:Description rdf:about=""/>
   </rdf:RDF>
</x:xmpmeta>
                                                                                                    
                                                                                                    
                                                                                                    
                                                                                                    
                                                                                                    
                                                                                                    
                                                                                                    
                                                                                                    
                                                                                                    
                                                                                                    
                                                                                                    
                                                                                                    
                                                                                                    
                                                                                                    
                                                                                                    
                                                                                                    
                                                                                                    
                                                                                                    
                                                                                                    
                                                                                                    
                           
<?xpacket end="w"?></metadata>
<defs>
    <style>
      .cls-1 {
        fill: #3a3a3a;
        fill-rule: evenodd;
      }
    </style>
  </defs>
  <path id="proceeds_icon" class="cls-1" d="M656.839,1021.07l-17.22,15.52a3.917,3.917,0,0,1-5.256,0l-17.22-15.52c-1.147-1.03-.685-3.07.857-3.07h6V996a4.084,4.084,0,0,1,4-4h18a4.084,4.084,0,0,1,4,4v22h6C657.542,1018,657.986,1020.04,656.839,1021.07ZM641.5,1010a1.5,1.5,0,0,0,0-3h-2.6c0-.01,0-0.01,0-0.02l3.516-3.48a1.479,1.479,0,0,0,0-2.1,1.519,1.519,0,0,0-2.113,0l-2.9,2.88-2.72-2.7a1.5,1.5,0,0,0-2.112,0,1.466,1.466,0,0,0,0,2.09l3.355,3.33H633.5a1.5,1.5,0,0,0,0,3H636v2h-2.5a1.5,1.5,0,0,0,0,3H636v1.5a1.5,1.5,0,0,0,3,0V1015h2.5a1.5,1.5,0,0,0,0-3H639v-2h2.5Z" transform="translate(-616.5 -992)"/>
</svg>
