<svg xmlns="http://www.w3.org/2000/svg" width="40" height="39" viewBox="0 0 40 39">
  <metadata><?xpacket begin="﻿" id="W5M0MpCehiHzreSzNTczkc9d"?>
<x:xmpmeta xmlns:x="adobe:ns:meta/" x:xmptk="Adobe XMP Core 5.6-c142 79.160924, 2017/07/13-01:06:39        ">
   <rdf:RDF xmlns:rdf="http://www.w3.org/1999/02/22-rdf-syntax-ns#">
      <rdf:Description rdf:about=""/>
   </rdf:RDF>
</x:xmpmeta>
                                                                                                    
                                                                                                    
                                                                                                    
                                                                                                    
                                                                                                    
                                                                                                    
                                                                                                    
                                                                                                    
                                                                                                    
                                                                                                    
                                                                                                    
                                                                                                    
                                                                                                    
                                                                                                    
                                                                                                    
                                                                                                    
                                                                                                    
                                                                                                    
                                                                                                    
                                                                                                    
                           
<?xpacket end="w"?></metadata>
<defs>
    <style>
      .cls-1 {
        fill: #3d83e6;
        fill-rule: evenodd;
      }
    </style>
  </defs>
  <path id="profit" class="cls-1" d="M52,576c-11.215,0-20-4.708-20-10.719V547.711c0-6.011,8.785-10.718,20-10.718s20,4.707,20,10.718V565.28C72,571.291,63.215,576,52,576Zm0-2.992c10.019,0,17-4.072,17-7.727V562.2c-3.5,3.03-9.728,5.016-17,5.016s-13.5-1.986-17-5.016v3.082C35,568.935,41.981,573.007,52,573.007Zm0-33.023c-10.018,0-17,4.072-17,7.727s6.981,7.727,17,7.727,17-4.072,17-7.727S62.019,539.984,52,539.984Zm17,13.429c-3.5,3.03-9.728,5.016-17,5.016s-13.5-1.986-17-5.016V556.5c0,3.655,6.981,7.727,17,7.727s17-4.072,17-7.727v-3.083Z" transform="translate(-32 -537)"/>
</svg>
