<svg xmlns="http://www.w3.org/2000/svg" width="40" height="40" viewBox="0 0 40 40">
  <metadata><?xpacket begin="﻿" id="W5M0MpCehiHzreSzNTczkc9d"?>
<x:xmpmeta xmlns:x="adobe:ns:meta/" x:xmptk="Adobe XMP Core 5.6-c142 79.160924, 2017/07/13-01:06:39        ">
   <rdf:RDF xmlns:rdf="http://www.w3.org/1999/02/22-rdf-syntax-ns#">
      <rdf:Description rdf:about=""/>
   </rdf:RDF>
</x:xmpmeta>
                                                                                                    
                                                                                                    
                                                                                                    
                                                                                                    
                                                                                                    
                                                                                                    
                                                                                                    
                                                                                                    
                                                                                                    
                                                                                                    
                                                                                                    
                                                                                                    
                                                                                                    
                                                                                                    
                                                                                                    
                                                                                                    
                                                                                                    
                                                                                                    
                                                                                                    
                                                                                                    
                           
<?xpacket end="w"?></metadata>
<defs>
    <style>
      .cls-1 {
        fill: #eb605d;
        fill-rule: evenodd;
      }
    </style>
  </defs>
  <path id="recharge" class="cls-1" d="M66.389,688H37.61A5.618,5.618,0,0,1,32,682.389V653.611A5.618,5.618,0,0,1,37.61,648H60.77L72,658.986v23.4A5.618,5.618,0,0,1,66.389,688ZM69,660.248L59.547,651H37.61A2.614,2.614,0,0,0,35,653.611v28.778A2.614,2.614,0,0,0,37.61,685H66.389A2.615,2.615,0,0,0,69,682.389V660.248Zm-7.975,5.3H42.975a1.5,1.5,0,0,1-1.061-2.561l4.432-4.432a1.5,1.5,0,0,1,2.121,2.121L46.6,662.55H61.025A1.5,1.5,0,0,1,61.025,665.55Zm-18.05,4.9h18.05a1.5,1.5,0,0,1,1.06,2.561l-4.432,4.432a1.5,1.5,0,0,1-2.121-2.121L57.4,673.45H42.975A1.5,1.5,0,0,1,42.975,670.45Z" transform="translate(-32 -648)"/>
</svg>
