<svg xmlns="http://www.w3.org/2000/svg" width="44" height="35" viewBox="0 0 44 35">
  <metadata><?xpacket begin="﻿" id="W5M0MpCehiHzreSzNTczkc9d"?>
<x:xmpmeta xmlns:x="adobe:ns:meta/" x:xmptk="Adobe XMP Core 5.6-c142 79.160924, 2017/07/13-01:06:39        ">
   <rdf:RDF xmlns:rdf="http://www.w3.org/1999/02/22-rdf-syntax-ns#">
      <rdf:Description rdf:about=""/>
   </rdf:RDF>
</x:xmpmeta>
                                                                                                    
                                                                                                    
                                                                                                    
                                                                                                    
                                                                                                    
                                                                                                    
                                                                                                    
                                                                                                    
                                                                                                    
                                                                                                    
                                                                                                    
                                                                                                    
                                                                                                    
                                                                                                    
                                                                                                    
                                                                                                    
                                                                                                    
                                                                                                    
                                                                                                    
                                                                                                    
                           
<?xpacket end="w"?></metadata>
<defs>
    <style>
      .cls-1 {
        fill: #3a3a3a;
        fill-rule: evenodd;
      }
    </style>
  </defs>
  <path id="recharge_icon" class="cls-1" d="M480.812,1033H445.187a4.2,4.2,0,0,1-4.187-4.19V1011h44v17.81A4.2,4.2,0,0,1,480.812,1033Zm-23.783-13.07-3.907-3.91a1.5,1.5,0,0,0-1.31-.78h-0.061a0.612,0.612,0,0,0-.133.02,1.272,1.272,0,0,0-.195.04,1.383,1.383,0,0,0-.765.38l-4.062,4.06a1.707,1.707,0,0,0,0,2.12,0.891,0.891,0,0,0,1.4.14l2-2v8c0,1.54,3,1.54,3,0v-8l1.908,2.05A1.5,1.5,0,1,0,457.029,1019.93ZM441,1002.19a4.2,4.2,0,0,1,4.187-4.19h35.625a4.2,4.2,0,0,1,4.188,4.19V1008H441v-5.81Z" transform="translate(-441 -998)"/>
</svg>
