<svg xmlns="http://www.w3.org/2000/svg" width="40.438" height="40.969" viewBox="0 0 40.438 40.969">
  <metadata><?xpacket begin="﻿" id="W5M0MpCehiHzreSzNTczkc9d"?>
<x:xmpmeta xmlns:x="adobe:ns:meta/" x:xmptk="Adobe XMP Core 5.6-c142 79.160924, 2017/07/13-01:06:39        ">
   <rdf:RDF xmlns:rdf="http://www.w3.org/1999/02/22-rdf-syntax-ns#">
      <rdf:Description rdf:about=""/>
   </rdf:RDF>
</x:xmpmeta>
                                                                                                    
                                                                                                    
                                                                                                    
                                                                                                    
                                                                                                    
                                                                                                    
                                                                                                    
                                                                                                    
                                                                                                    
                                                                                                    
                                                                                                    
                                                                                                    
                                                                                                    
                                                                                                    
                                                                                                    
                                                                                                    
                                                                                                    
                                                                                                    
                                                                                                    
                                                                                                    
                           
<?xpacket end="w"?></metadata>
<defs>
    <style>
      .cls-1 {
        fill: #eb605d;
        fill-rule: evenodd;
      }
    </style>
  </defs>
  <path id="relation" class="cls-1" d="M69.257,218.6c-3.145,3.551-8.3,5.35-15.312,5.35a1.515,1.515,0,1,1,0-3.029c6.085,0,10.463-1.445,13.013-4.3,0.168-.188.324-0.379,0.47-0.572a5.489,5.489,0,0,1-.605.061,5.562,5.562,0,0,1-5.556-5.554v-3.029a5.562,5.562,0,0,1,5.556-5.554,5.488,5.488,0,0,1,2.5.619,17.152,17.152,0,0,0-34.287.021,5.494,5.494,0,0,1,2.535-.64,5.562,5.562,0,0,1,5.556,5.554v3.029a5.556,5.556,0,0,1-11.111,0v-0.984a1.444,1.444,0,0,1-.038-0.185v-6.225a20.2,20.2,0,0,1,40.4,0v6.148A12.851,12.851,0,0,1,69.257,218.6Zm-34.215-8.039a2.525,2.525,0,0,0,5.051,0v-3.029a2.525,2.525,0,0,0-5.05,0v3.029Zm34.306-1.169v-1.86a2.525,2.525,0,0,0-5.05,0v3.029a2.525,2.525,0,0,0,5.051,0v-1.169Z" transform="translate(-31.969 -182.969)"/>
</svg>
