<svg xmlns="http://www.w3.org/2000/svg" width="36.969" height="37.46" viewBox="0 0 36.969 37.46">
  <metadata><?xpacket begin="﻿" id="W5M0MpCehiHzreSzNTczkc9d"?>
<x:xmpmeta xmlns:x="adobe:ns:meta/" x:xmptk="Adobe XMP Core 5.6-c142 79.160924, 2017/07/13-01:06:39        ">
   <rdf:RDF xmlns:rdf="http://www.w3.org/1999/02/22-rdf-syntax-ns#">
      <rdf:Description rdf:about=""/>
   </rdf:RDF>
</x:xmpmeta>
                                                                                                    
                                                                                                    
                                                                                                    
                                                                                                    
                                                                                                    
                                                                                                    
                                                                                                    
                                                                                                    
                                                                                                    
                                                                                                    
                                                                                                    
                                                                                                    
                                                                                                    
                                                                                                    
                                                                                                    
                                                                                                    
                                                                                                    
                                                                                                    
                                                                                                    
                                                                                                    
                           
<?xpacket end="w"?></metadata>
<defs>
    <style>
      .cls-1 {
        fill: #333;
        fill-rule: evenodd;
      }
    </style>
  </defs>
  <path id="service_nor" class="cls-1" d="M484.079,1267.71a18.628,18.628,0,0,1-4.187,19.45,18.023,18.023,0,0,1-19.226,4.24,15.853,15.853,0,0,1-5.98,1.43,6.139,6.139,0,0,1-4.521-1.67c-2.117-2.15-2.182-5.91-.24-10.64a18.626,18.626,0,0,1,4.183-19.46,18.071,18.071,0,0,1,19.226-4.24c4.664-1.97,8.385-1.9,10.5.24S486.027,1262.98,484.079,1267.71Zm-31.794,21.3c0.849,0.86,2.5,1,4.627.48a18.552,18.552,0,0,1-5.1-5.16C451.3,1286.48,451.437,1288.15,452.285,1289.01ZM467,1258.69a15.117,15.117,0,0,0-10.771,4.51,15.588,15.588,0,0,0,0,21.82,15.123,15.123,0,0,0,21.542,0,15.527,15.527,0,0,0,4.262-13.25,51.133,51.133,0,0,1-7.663,9.8,1.473,1.473,0,0,1-2.12,0,1.522,1.522,0,0,1,0-2.14,44.386,44.386,0,0,0,8.564-11.78,15.388,15.388,0,0,0-3.043-4.45A15.117,15.117,0,0,0,467,1258.69Zm14.715,0.52c-0.848-.86-2.5-1-4.626-0.47a17.528,17.528,0,0,1,2.8,2.32,18.391,18.391,0,0,1,2.293,2.83C482.7,1261.74,482.558,1260.06,481.715,1259.21Z" transform="translate(-448.531 -1255.38)"/>
</svg>
