<svg xmlns="http://www.w3.org/2000/svg" width="36.969" height="37.46" viewBox="0 0 36.969 37.46">
  <metadata><?xpacket begin="﻿" id="W5M0MpCehiHzreSzNTczkc9d"?>
<x:xmpmeta xmlns:x="adobe:ns:meta/" x:xmptk="Adobe XMP Core 5.6-c142 79.160924, 2017/07/13-01:06:39        ">
   <rdf:RDF xmlns:rdf="http://www.w3.org/1999/02/22-rdf-syntax-ns#">
      <rdf:Description rdf:about=""/>
   </rdf:RDF>
</x:xmpmeta>
                                                                                                    
                                                                                                    
                                                                                                    
                                                                                                    
                                                                                                    
                                                                                                    
                                                                                                    
                                                                                                    
                                                                                                    
                                                                                                    
                                                                                                    
                                                                                                    
                                                                                                    
                                                                                                    
                                                                                                    
                                                                                                    
                                                                                                    
                                                                                                    
                                                                                                    
                                                                                                    
                           
<?xpacket end="w"?></metadata>
<defs>
    <style>
      .cls-1 {
        fill: #36c86c;
        fill-rule: evenodd;
      }
    </style>
  </defs>
  <path id="service_sel" class="cls-1" d="M484.079,1267.71a18.628,18.628,0,0,1-4.187,19.45,18.023,18.023,0,0,1-19.226,4.24,15.853,15.853,0,0,1-5.98,1.43,6.139,6.139,0,0,1-4.521-1.67c-2.117-2.15-2.182-5.91-.24-10.64a18.626,18.626,0,0,1,4.183-19.46,18.071,18.071,0,0,1,19.226-4.24c4.664-1.97,8.385-1.9,10.5.24S486.027,1262.98,484.079,1267.71Zm-29.971,19.45a18.325,18.325,0,0,1-2.292-2.83c-0.516,2.15-.379,3.82.469,4.68s2.5,1,4.627.48A18.2,18.2,0,0,1,454.108,1287.16Zm27.607-27.95c-0.848-.86-2.5-1-4.626-0.47a17.528,17.528,0,0,1,2.8,2.32,18.391,18.391,0,0,1,2.293,2.83C482.7,1261.74,482.558,1260.06,481.715,1259.21Zm0.467,4.74a18.392,18.392,0,0,1-.944,2.78,42.922,42.922,0,0,1-8.988,12.7,1.522,1.522,0,0,0,0,2.14,1.473,1.473,0,0,0,2.12,0A45.947,45.947,0,0,0,484,1267.93Z" transform="translate(-448.531 -1255.38)"/>
</svg>
