<svg xmlns="http://www.w3.org/2000/svg" width="42" height="42" viewBox="0 0 42 42">
  <metadata><?xpacket begin="﻿" id="W5M0MpCehiHzreSzNTczkc9d"?>
<x:xmpmeta xmlns:x="adobe:ns:meta/" x:xmptk="Adobe XMP Core 5.6-c142 79.160924, 2017/07/13-01:06:39        ">
   <rdf:RDF xmlns:rdf="http://www.w3.org/1999/02/22-rdf-syntax-ns#">
      <rdf:Description rdf:about=""/>
   </rdf:RDF>
</x:xmpmeta>
                                                                                                    
                                                                                                    
                                                                                                    
                                                                                                    
                                                                                                    
                                                                                                    
                                                                                                    
                                                                                                    
                                                                                                    
                                                                                                    
                                                                                                    
                                                                                                    
                                                                                                    
                                                                                                    
                                                                                                    
                                                                                                    
                                                                                                    
                                                                                                    
                                                                                                    
                                                                                                    
                           
<?xpacket end="w"?></metadata>
<defs>
    <style>
      .cls-1 {
        fill: #eb605d;
        fill-rule: evenodd;
      }
    </style>
  </defs>
  <path id="set_icon" class="cls-1" d="M91.051,1042.05l-3.353.5a16,16,0,0,1-1.46,3.47l2.066,2.56a2.091,2.091,0,0,1-.069,2.88l-2.77,2.77a2.061,2.061,0,0,1-1.48.62h0a2.1,2.1,0,0,1-1.376-.52l-2.726-2.01a15.784,15.784,0,0,1-3.489,1.42l-0.343,3.27a2.094,2.094,0,0,1-2.092,1.99H70.043a2.1,2.1,0,0,1-2.09-1.95l-0.5-3.35a16.224,16.224,0,0,1-3.473-1.46l-2.552,2.06a2.089,2.089,0,0,1-1.407.55h0a2.067,2.067,0,0,1-1.481-.62l-2.767-2.77a2.092,2.092,0,0,1-.1-2.85l2.015-2.73a15.953,15.953,0,0,1-1.426-3.49l-3.263-.34A2.094,2.094,0,0,1,51,1039.96v-3.92a2.106,2.106,0,0,1,1.949-2.09l3.352-.5a16.185,16.185,0,0,1,1.461-3.47l-2.066-2.56a2.091,2.091,0,0,1,.069-2.88l2.77-2.77a2.061,2.061,0,0,1,1.48-.62h0a2.049,2.049,0,0,1,1.375.52l2.727,2.01a15.819,15.819,0,0,1,3.489-1.42l0.343-3.27a2.094,2.094,0,0,1,2.092-1.99h3.915a2.1,2.1,0,0,1,2.09,1.95l0.5,3.35a16.228,16.228,0,0,1,3.474,1.46l2.551-2.06a2.091,2.091,0,0,1,1.408-.55h0a2.067,2.067,0,0,1,1.481.62l2.767,2.77a2.092,2.092,0,0,1,.1,2.85l-2.015,2.73a15.948,15.948,0,0,1,1.426,3.49l3.263,0.34A2.094,2.094,0,0,1,93,1036.04v3.92A2.106,2.106,0,0,1,91.051,1042.05ZM90,1036.86l-4.712-.49-0.222-1.08a13.2,13.2,0,0,0-1.811-4.46l-0.554-.87,2.854-3.86-1.634-1.63-3.684,2.98-0.916-.6a13.1,13.1,0,0,0-4.43-1.88l-1.006-.22L73.171,1020H70.861l-0.5,4.71-1.074.22a13.388,13.388,0,0,0-4.456,1.81l-0.869.56-3.864-2.86-1.634,1.64,2.983,3.68-0.6.92a13.251,13.251,0,0,0-1.873,4.43l-0.223,1-4.751.72v2.31l4.712,0.49,0.222,1.08a13.2,13.2,0,0,0,1.811,4.46l0.554,0.87-2.854,3.86,1.634,1.63,3.685-2.98,0.916,0.6a13.1,13.1,0,0,0,4.43,1.88l1.006,0.22,0.714,4.75h2.311l0.5-4.71,1.074-.22a13.337,13.337,0,0,0,4.456-1.81l0.869-.56,3.865,2.86,1.634-1.64-2.983-3.68,0.6-.92a13.093,13.093,0,0,0,1.873-4.43l0.223-1,4.751-.72v-2.31Zm-17.95,9.55a8.36,8.36,0,1,1,8.363-8.36A8.371,8.371,0,0,1,72.05,1046.41Zm0-13.72a5.36,5.36,0,1,0,5.363,5.36A5.365,5.365,0,0,0,72.05,1032.69Z" transform="translate(-51 -1017)"/>
</svg>
