<svg xmlns="http://www.w3.org/2000/svg" width="36" height="36" viewBox="0 0 36 36">
  <metadata><?xpacket begin="﻿" id="W5M0MpCehiHzreSzNTczkc9d"?>
<x:xmpmeta xmlns:x="adobe:ns:meta/" x:xmptk="Adobe XMP Core 5.6-c142 79.160924, 2017/07/13-01:06:39        ">
   <rdf:RDF xmlns:rdf="http://www.w3.org/1999/02/22-rdf-syntax-ns#">
      <rdf:Description rdf:about=""/>
   </rdf:RDF>
</x:xmpmeta>
                                                                                                    
                                                                                                    
                                                                                                    
                                                                                                    
                                                                                                    
                                                                                                    
                                                                                                    
                                                                                                    
                                                                                                    
                                                                                                    
                                                                                                    
                                                                                                    
                                                                                                    
                                                                                                    
                                                                                                    
                                                                                                    
                                                                                                    
                                                                                                    
                                                                                                    
                                                                                                    
                           
<?xpacket end="w"?></metadata>
<defs>
    <style>
      .cls-1 {
        fill: #3d83e6;
        fill-rule: evenodd;
      }
    </style>
  </defs>
  <path id="share_icon" class="cls-1" d="M81.843,543H60.157A7.166,7.166,0,0,1,53,535.843V514.157A7.166,7.166,0,0,1,60.157,507h6.52a1.5,1.5,0,0,1,0,3h-6.52A4.162,4.162,0,0,0,56,514.157v21.686A4.162,4.162,0,0,0,60.157,540H81.843A4.162,4.162,0,0,0,86,535.843V527.2a1.5,1.5,0,0,1,3,0v8.643A7.166,7.166,0,0,1,81.843,543Zm5.389-22.979a1.5,1.5,0,0,1-1.5-1.5V511.65c-12.958,5.1-12.394,13.152-12.362,13.5a1.505,1.505,0,0,1-1.344,1.636c-0.051,0-.1.007-0.152,0.007a1.493,1.493,0,0,1-1.487-1.331c-0.045-.418-0.85-9.384,11.568-15.437H76.231a1.5,1.5,0,0,1,0-3h11a1.5,1.5,0,0,1,1.5,1.5v9.991A1.5,1.5,0,0,1,87.231,520.021Z" transform="translate(-53 -507)"/>
</svg>
