<svg xmlns="http://www.w3.org/2000/svg" width="40" height="46" viewBox="0 0 40 46">
  <metadata><?xpacket begin="﻿" id="W5M0MpCehiHzreSzNTczkc9d"?>
<x:xmpmeta xmlns:x="adobe:ns:meta/" x:xmptk="Adobe XMP Core 5.6-c142 79.160924, 2017/07/13-01:06:39        ">
   <rdf:RDF xmlns:rdf="http://www.w3.org/1999/02/22-rdf-syntax-ns#">
      <rdf:Description rdf:about=""/>
   </rdf:RDF>
</x:xmpmeta>
                                                                                                    
                                                                                                    
                                                                                                    
                                                                                                    
                                                                                                    
                                                                                                    
                                                                                                    
                                                                                                    
                                                                                                    
                                                                                                    
                                                                                                    
                                                                                                    
                                                                                                    
                                                                                                    
                                                                                                    
                                                                                                    
                                                                                                    
                                                                                                    
                                                                                                    
                                                                                                    
                           
<?xpacket end="w"?></metadata>
<defs>
    <style>
      .cls-1 {
        fill: #3a3a3a;
        fill-rule: evenodd;
      }
    </style>
  </defs>
  <path id="state" class="cls-1" d="M130.178,1228H99.822A4.822,4.822,0,0,1,95,1223.18v-36.36a4.822,4.822,0,0,1,4.822-4.82h17.059a6.82,6.82,0,0,1,4.08,1.35l11.729,8.69a5.718,5.718,0,0,1,2.31,4.59v26.55A4.822,4.822,0,0,1,130.178,1228ZM106.5,1214h8a1.5,1.5,0,0,0,0-3h-8A1.5,1.5,0,0,0,106.5,1214Zm17-11h-17a1.5,1.5,0,0,0,0,3h17A1.5,1.5,0,0,0,123.5,1203Z" transform="translate(-95 -1182)"/>
</svg>
