<svg xmlns="http://www.w3.org/2000/svg" width="37" height="39" viewBox="0 0 37 39">
  <metadata><?xpacket begin="﻿" id="W5M0MpCehiHzreSzNTczkc9d"?>
<x:xmpmeta xmlns:x="adobe:ns:meta/" x:xmptk="Adobe XMP Core 5.6-c142 79.160924, 2017/07/13-01:06:39        ">
   <rdf:RDF xmlns:rdf="http://www.w3.org/1999/02/22-rdf-syntax-ns#">
      <rdf:Description rdf:about=""/>
   </rdf:RDF>
</x:xmpmeta>
                                                                                                    
                                                                                                    
                                                                                                    
                                                                                                    
                                                                                                    
                                                                                                    
                                                                                                    
                                                                                                    
                                                                                                    
                                                                                                    
                                                                                                    
                                                                                                    
                                                                                                    
                                                                                                    
                                                                                                    
                                                                                                    
                                                                                                    
                                                                                                    
                                                                                                    
                                                                                                    
                           
<?xpacket end="w"?></metadata>
<defs>
    <style>
      .cls-1 {
        fill: #333;
        fill-rule: evenodd;
      }
    </style>
  </defs>
  <path id="talk_nor" class="cls-1" d="M91.955,1293.94a1.384,1.384,0,0,1-.4.05,1.486,1.486,0,0,1-1.27-.7l-2.9-4.6C78.99,1286.46,74,1280.42,74,1272.43c0-9.94,7.953-17.44,18.5-17.44s18.5,7.5,18.5,17.44C111,1288.46,92.146,1293.89,91.955,1293.94Zm0.545-35.96c-8.837,0-15.5,6.21-15.5,14.45,0,6.8,4.26,11.72,11.688,13.51a1.483,1.483,0,0,1,.919.65l2.592,4.12c3.686-1.32,15.8-6.56,15.8-18.28C108,1264.19,101.337,1257.98,92.5,1257.98Zm0,21.5a8.546,8.546,0,0,1-7.361-4.24,1.5,1.5,0,0,1,2.6-1.5,5.5,5.5,0,0,0,9.529,0,1.509,1.509,0,0,1,2.05-.54,1.49,1.49,0,0,1,.546,2.04A8.546,8.546,0,0,1,92.5,1279.48Z" transform="translate(-74 -1255)"/>
</svg>
